<?xml version="1.0" encoding="UTF-8"?>
<svg version="1.1" xmlns="http://www.w3.org/2000/svg" width="256" height="256">
<path d="M0 0 C5.66705929 4.42982345 10.11609534 8.95546257 14.125 14.9375 C17.24948401 19.51809943 17.24948401 19.51809943 22.25 21.375 C23.4875 21.58125 24.725 21.7875 26 22 C28.5 24 28.5 24 30 27 C29.86754072 28.62814536 29.69715302 30.25341637 29.5 31.875 C29.22735562 34.50778841 29.22735562 34.50778841 30 37 C32.8411536 39.28968745 35.68596877 40.78241769 38.984375 42.33203125 C42.28675392 44.15860612 43.94751214 45.85650525 46 49 C46 51.625 46 51.625 45 54 C41.71137595 57.10680109 38.36241797 57.87439529 34 58.8125 C32.783125 59.08707031 31.56625 59.36164063 30.3125 59.64453125 C26.96196751 60.00408132 25.72297438 59.87204488 23 58 C25.49590263 54.92424121 27.58313246 54.45027874 31.4375 53.875 C34.67533441 53.37280528 37.83462295 52.85308034 41 52 C38.60075601 46.40176402 34.20084968 44.56226347 29 42 C29.0825 42.9075 29.165 43.815 29.25 44.75 C29 48 29 48 27.125 50.375 C25 52 25 52 23 52 C22.87044922 52.87398437 22.87044922 52.87398437 22.73828125 53.765625 C20.80482668 65.04706637 16.655462 74.46734964 9 83 C8.38125 83.69996094 7.7625 84.39992188 7.125 85.12109375 C-3.57404282 96.53196804 -17.66250916 101.71604348 -33.125 102.25 C-49.44705913 102.02671602 -62.68388437 95.47835385 -74 84 C-74.86238281 83.15308594 -74.86238281 83.15308594 -75.7421875 82.2890625 C-82.74409411 74.85180418 -86.36485495 65.42840481 -88.06640625 55.49609375 C-89.29561901 52.20962113 -91.05739657 51.75433432 -94 50 C-94.609375 47.6953125 -94.609375 47.6953125 -94.75 45.125 C-95.31236259 41.18981358 -95.31236259 41.18981358 -97.9765625 38.41015625 C-99.56729388 37.59924595 -101.17456881 36.81995627 -102.796875 36.07421875 C-105.82413305 34.59816208 -107.38443609 32.93738892 -109 30 C-109 27.375 -109 27.375 -108 25 C-104.7478316 21.93366979 -101.57427177 21.23418937 -97.25 20.375 C-96.00605469 20.11589844 -94.76210937 19.85679688 -93.48046875 19.58984375 C-90.72908301 19.12355952 -88.32772503 18.94293266 -85.5625 18.9375 C-80.60978361 17.63415358 -79.55310878 14.96653757 -76.89453125 10.765625 C-69.61975725 0.14595491 -57.59145024 -6.5418456 -45.23828125 -9.52734375 C-28.93224554 -11.9073562 -13.57286868 -9.88722792 0 0 Z M-43 -5 C-43.33 -4.01 -43.66 -3.02 -44 -2 C-40.7 -2.33 -37.4 -2.66 -34 -3 C-34 -3.99 -34 -4.98 -34 -6 C-37.34252724 -6.07427838 -39.8035914 -6.06546953 -43 -5 Z M-32 -6 C-32 -5.01 -32 -4.02 -32 -3 C-28.7 -2.67 -25.4 -2.34 -22 -2 C-22.33 -2.99 -22.66 -3.98 -23 -5 C-25.97 -5.33 -28.94 -5.66 -32 -6 Z M-21 -5 C-20.67 -4.01 -20.34 -3.02 -20 -2 C-17.36 -1.67 -14.72 -1.34 -12 -1 C-12.66 -1.99 -13.32 -2.98 -14 -4 C-17.56769552 -4.73606499 -17.56769552 -4.73606499 -21 -5 Z M-53 -3 C-53 -2.34 -53 -1.68 -53 -1 C-49.535 -1.495 -49.535 -1.495 -46 -2 C-45.67 -2.99 -45.34 -3.98 -45 -5 C-47.88395737 -5 -50.29477815 -3.94094673 -53 -3 Z M-59.625 -0.5 C-60.07875 -0.005 -60.5325 0.49 -61 1 C-59.02463255 0.65213292 -59.02463255 0.65213292 -57 0 C-56.67 -0.66 -56.34 -1.32 -56 -2 C-58.12364481 -2.22609337 -58.12364481 -2.22609337 -59.625 -0.5 Z M-10 -2 C-9.01 -0.515 -9.01 -0.515 -8 1 C-7.01 0.67 -6.02 0.34 -5 0 C-7.475 -0.99 -7.475 -0.99 -10 -2 Z M-44 0 C-44 0.33 -44 0.66 -44 1 C-40.7 1 -37.4 1 -34 1 C-34 0.67 -34 0.34 -34 0 C-37.3 0 -40.6 0 -44 0 Z M-32 0 C-32 0.33 -32 0.66 -32 1 C-28.37 1 -24.74 1 -21 1 C-21 0.67 -21 0.34 -21 0 C-24.63 0 -28.26 0 -32 0 Z M-52 1 C-52 1.33 -52 1.66 -52 2 C-50.35 2 -48.7 2 -47 2 C-47 1.67 -47 1.34 -47 1 C-48.65 1 -50.3 1 -52 1 Z M-19 1 C-19 1.33 -19 1.66 -19 2 C-17.35 2 -15.7 2 -14 2 C-14 1.67 -14 1.34 -14 1 C-15.65 1 -17.3 1 -19 1 Z M-56 2 C-52 3 -52 3 -52 3 Z M-45 4 C-45 4.66 -45 5.32 -45 6 C-41.37 6 -37.74 6 -34 6 C-34 5.01 -34 4.02 -34 3 C-35.8871875 2.9690625 -35.8871875 2.9690625 -37.8125 2.9375 C-38.52019531 2.92589844 -39.22789063 2.91429688 -39.95703125 2.90234375 C-42.20305461 2.91736783 -42.20305461 2.91736783 -45 4 Z M-32 3 C-32 3.99 -32 4.98 -32 6 C-28.37 6 -24.74 6 -21 6 C-21 5.34 -21 4.68 -21 4 C-23.75078884 3.08307039 -25.35948913 2.89113917 -28.1875 2.9375 C-29.445625 2.958125 -30.70375 2.97875 -32 3 Z M-18 4 C-18 4.99 -18 5.98 -18 7 C-13.05 7.99 -13.05 7.99 -8 9 C-8 8.01 -8 7.02 -8 6 C-11.3 5.34 -14.6 4.68 -18 4 Z M-57 6 C-57 6.99 -57 7.98 -57 9 C-54.03 8.34 -51.06 7.68 -48 7 C-48 6.01 -48 5.02 -48 4 C-51.15332957 4 -53.99457031 5.10950231 -57 6 Z M-61 7 C-64.465 8.485 -64.465 8.485 -68 10 C-68 10.66 -68 11.32 -68 12 C-65.69 11.34 -63.38 10.68 -61 10 C-61 9.01 -61 8.02 -61 7 Z M-46 9 C-46 11.97 -46 14.94 -46 18 C-40.06 17.505 -40.06 17.505 -34 17 C-34 14.03 -34 11.06 -34 8 C-35.85625 7.9690625 -35.85625 7.9690625 -37.75 7.9375 C-38.44609375 7.92589844 -39.1421875 7.91429688 -39.859375 7.90234375 C-42.33999176 7.94469744 -42.33999176 7.94469744 -46 9 Z M-32 8 C-32 10.97 -32 13.94 -32 17 C-28.04 17.33 -24.08 17.66 -20 18 C-20 15.03 -20 12.06 -20 9 C-23.12889199 8.217777 -25.1400091 7.88566682 -28.25 7.9375 C-29.4875 7.958125 -30.725 7.97875 -32 8 Z M-5 8 C-5 8.66 -5 9.32 -5 10 C-2.69 10.66 -0.38 11.32 2 12 C2 11.34 2 10.68 2 10 C-0.64738916 8.5393715 -1.89448334 8 -5 8 Z M-18 9 C-17.67 11.97 -17.34 14.94 -17 18 C-13.7 18.33 -10.4 18.66 -7 19 C-7 16.36 -7 13.72 -7 11 C-10.63 10.34 -14.26 9.68 -18 9 Z M-54.625 10.5 C-55.85089844 10.91765625 -55.85089844 10.91765625 -57.1015625 11.34375 C-57.72804687 11.5603125 -58.35453125 11.776875 -59 12 C-59 14.31 -59 16.62 -59 19 C-57.1128125 19.0309375 -57.1128125 19.0309375 -55.1875 19.0625 C-54.47980469 19.07410156 -53.77210937 19.08570313 -53.04296875 19.09765625 C-50.79694539 19.08263217 -50.79694539 19.08263217 -48 18 C-48 15.03 -48 12.06 -48 9 C-50.46620289 9 -52.29344126 9.70060843 -54.625 10.5 Z M-72 12 C-72.33 12.66 -72.66 13.32 -73 14 C-72.34 14 -71.68 14 -71 14 C-71.33 13.34 -71.66 12.68 -72 12 Z M-5 12 C-4.67 14.31 -4.34 16.62 -4 19 C-1.36 19 1.28 19 4 19 C3.81266183 17.03838102 3.81266183 17.03838102 3 15 C1.15272433 13.86929556 1.15272433 13.86929556 -1.0625 13.25 C-1.79597656 13.00765625 -2.52945313 12.7653125 -3.28515625 12.515625 C-3.85105469 12.34546875 -4.41695313 12.1753125 -5 12 Z M5 12 C5 12.66 5 13.32 5 14 C6.32 14.33 7.64 14.66 9 15 C8.02149805 13.97895449 7.02019573 12.9793879 6 12 C5.67 12 5.34 12 5 12 Z M-69 15 C-70.04289755 17.06890419 -70.04289755 17.06890419 -70 19 C-67.36 19 -64.72 19 -62 19 C-61.67 16.69 -61.34 14.38 -61 12 C-63.82567151 12 -66.55855194 13.77927597 -69 15 Z M-75 14 C-75.33 14.66 -75.66 15.32 -76 16 C-75.01 15.67 -74.02 15.34 -73 15 C-73.66 14.67 -74.32 14.34 -75 14 Z M6 17 C6.33 18.65 6.66 20.3 7 22 C8.32 21.34 9.64 20.68 11 20 C9.35 19.01 7.7 18.02 6 17 Z M-73 17 C-73.66 17.66 -74.32 18.32 -75 19 C-74.01 19 -73.02 19 -72 19 C-72.33 18.34 -72.66 17.68 -73 17 Z M-104 27 C-103.95231597 28.87880872 -103.95231597 28.87880872 -103 31 C-99.82309378 33.72418354 -99.82309378 33.72418354 -96 35 C-95.9690625 33.081875 -95.9690625 33.081875 -95.9375 31.125 C-95.92589844 30.40570313 -95.91429688 29.68640625 -95.90234375 28.9453125 C-95.87350758 26.91814596 -95.87350758 26.91814596 -97 25 C-100.10551666 25 -101.35261084 25.5393715 -104 27 Z M5 50 C5.99 51.485 5.99 51.485 7 53 C7 52.01 7 51.02 7 50 C6.34 50 5.68 50 5 50 Z M-37 52 C-36.67 53.65 -36.34 55.3 -36 57 C-37.98 57.33 -39.96 57.66 -42 58 C-42 58.33 -42 58.66 -42 59 C-39.36 59 -36.72 59 -34 59 C-34.33 56.69 -34.66 54.38 -35 52 C-35.66 52 -36.32 52 -37 52 Z M-29 52 C-29 53.65 -29 55.3 -29 57 C-29.99 57 -30.98 57 -32 57 C-32 57.66 -32 58.32 -32 59 C-29.36 59 -26.72 59 -24 59 C-24 58.34 -24 57.68 -24 57 C-24.66 57 -25.32 57 -26 57 C-26.66 55.35 -27.32 53.7 -28 52 C-28.33 52 -28.66 52 -29 52 Z M-61 56 C-61.76956136 58.34533951 -61.76956136 58.34533951 -62 61 C-60.66621425 62.8354799 -60.66621425 62.8354799 -59 64 C-57.35 63.34 -55.7 62.68 -54 62 C-54.33 60.68 -54.66 59.36 -55 58 C-56.65 58 -58.3 58 -60 58 C-60.33 57.34 -60.66 56.68 -61 56 Z M-15 55 C-15.33 55.66 -15.66 56.32 -16 57 C-18.0625 57.625 -18.0625 57.625 -20 58 C-20.33 57.34 -20.66 56.68 -21 56 C-21 57.32 -21 58.64 -21 60 C-18.69 60.33 -16.38 60.66 -14 61 C-14 59.02 -14 57.04 -14 55 C-14.33 55 -14.66 55 -15 55 Z M-85 57 C-84 59 -84 59 -84 59 Z M-52 58 C-52 58.99 -52 59.98 -52 61 C-49.36 60.67 -46.72 60.34 -44 60 C-44.33 59.34 -44.66 58.68 -45 58 C-47.31 58 -49.62 58 -52 58 Z M-11 58 C-11.33 59.32 -11.66 60.64 -12 62 C-10.02 62.66 -8.04 63.32 -6 64 C-5.34 62.35 -4.68 60.7 -4 59 C-5.12534105 57.64381501 -5.12534105 57.64381501 -8.0625 57.9375 C-9.031875 57.958125 -10.00125 57.97875 -11 58 Z M-1 58 C-2.485 61.465 -2.485 61.465 -4 65 C-1.525 65.99 -1.525 65.99 1 67 C2.65 64.36 4.3 61.72 6 59 C3.69 58.67 1.38 58.34 -1 58 Z M12 58 C13 60 13 60 13 60 Z M-75 59 C-77.18837453 61.65092965 -77.18837453 61.65092965 -76.9375 63.8125 C-75.5375248 67.0791088 -73.35411406 69.34407644 -71 72 C-70.01 71.01 -69.02 70.02 -68 69 C-68.97473126 67.33073546 -69.95489789 65.66464358 -70.9375 64 C-71.75541016 62.6078125 -71.75541016 62.6078125 -72.58984375 61.1875 C-73.05519531 60.465625 -73.52054688 59.74375 -74 59 C-74.33 59 -74.66 59 -75 59 Z M-67 56 C-67 56.99 -67 57.98 -67 59 C-68.65 59 -70.3 59 -72 59 C-70.35 61.64 -68.7 64.28 -67 67 C-65.35 66.34 -63.7 65.68 -62 65 C-63.32 62.03 -64.64 59.06 -66 56 C-66.33 56 -66.66 56 -67 56 Z M-82 60 C-82 61.65 -82 63.3 -82 65 C-81.34 64.34 -80.68 63.68 -80 63 C-80.66 62.01 -81.32 61.02 -82 60 Z M8 60 C6.02 62.97 4.04 65.94 2 69 C2.99 69.99 3.98 70.98 5 72 C6.03590338 70.93106782 7.05333942 69.84421512 8.0625 68.75 C8.63097656 68.14671875 9.19945312 67.5434375 9.78515625 66.921875 C11.22742784 65.07031592 11.22742784 65.07031592 10.80859375 62.828125 C10.14723776 60.80816693 10.14723776 60.80816693 8 60 Z M-40 61 C-41.26264601 65.29299643 -40.62950412 67.87831311 -39 72 C-37.35 72 -35.7 72 -34 72 C-34 68.37 -34 64.74 -34 61 C-35.98 61 -37.96 61 -40 61 Z M-32 61 C-32 64.63 -32 68.26 -32 72 C-30.35 72 -28.7 72 -27 72 C-25.39644899 68.49223216 -24.77963136 65.85645121 -25 62 C-27.31 61.67 -29.62 61.34 -32 61 Z M15 61 C14.67 61.99 14.34 62.98 14 64 C14.99 64.495 14.99 64.495 16 65 C15.67 63.68 15.34 62.36 15 61 Z M-50 63 C-49.39009109 66.55780196 -48.4216319 69.6828589 -47 73 C-45.35 73 -43.7 73 -42 73 C-42.14107747 71.54119891 -42.28802415 70.08296449 -42.4375 68.625 C-42.51871094 67.81289062 -42.59992188 67.00078125 -42.68359375 66.1640625 C-42.89090114 63.95727195 -42.89090114 63.95727195 -44 62 C-47.05270463 61.84188612 -47.05270463 61.84188612 -50 63 Z M-22 62 C-23.19287411 65.87684087 -24 68.91621923 -24 73 C-22.35 73 -20.7 73 -19 73 C-17.68 69.7 -16.36 66.4 -15 63 C-17.31 62.67 -19.62 62.34 -22 62 Z M-55 64 C-55.99 64.66 -56.98 65.32 -58 66 C-56.7508258 69.45925163 -55.32472205 72.14693203 -53 75 C-51.68 74.67 -50.36 74.34 -49 74 C-49.42257276 72.5164999 -49.86356322 71.03823576 -50.3125 69.5625 C-50.55613281 68.73878906 -50.79976562 67.91507812 -51.05078125 67.06640625 C-51.52064453 66.04353516 -51.52064453 66.04353516 -52 65 C-52.99 64.67 -53.98 64.34 -55 64 Z M-13 64 C-13.69965443 65.26418246 -14.38434763 66.53665402 -15.0625 67.8125 C-15.44535156 68.52019531 -15.82820313 69.22789062 -16.22265625 69.95703125 C-17.30263511 72.14697801 -17.30263511 72.14697801 -16 75 C-13.29561004 74.63594751 -12.25593617 74.31857318 -10.515625 72.15234375 C-10.09796875 71.42144531 -9.6803125 70.69054687 -9.25 69.9375 C-8.82203125 69.20402344 -8.3940625 68.47054687 -7.953125 67.71484375 C-7.48132813 66.86599609 -7.48132813 66.86599609 -7 66 C-8.98 65.34 -10.96 64.68 -13 64 Z M-79 66 C-78.49890042 70.38462134 -77.01704885 72.8000997 -74 76 C-73.34 76 -72.68 76 -72 76 C-73.3937282 71.56541027 -75.60582235 69.12621626 -79 66 Z M12 66 C10.99421411 67.28716647 9.99553202 68.57988658 9 69.875 C8.443125 70.59429687 7.88625 71.31359375 7.3125 72.0546875 C5.81356623 73.8852085 5.81356623 73.8852085 6 76 C9.33717549 74.6190998 11.22301036 73.1798762 13 70 C12.61702961 67.89437544 12.61702961 67.89437544 12 66 Z M-63.5625 68.5 C-64.036875 68.995 -64.51125 69.49 -65 70 C-64.07038578 71.15224028 -63.1309875 72.29659176 -62.1875 73.4375 C-61.66542969 74.07558594 -61.14335938 74.71367187 -60.60546875 75.37109375 C-58.99165589 77.2548275 -58.99165589 77.2548275 -56 78 C-55.34 77.34 -54.68 76.68 -54 76 C-55.14206358 74.49712782 -56.28874957 72.99776716 -57.4375 71.5 C-58.07558594 70.6646875 -58.71367188 69.829375 -59.37109375 68.96875 C-59.90863281 68.3190625 -60.44617188 67.669375 -61 67 C-62.24076302 66.88457803 -62.24076302 66.88457803 -63.5625 68.5 Z M-5 67 C-7.31 69.97 -9.62 72.94 -12 76 C-10.02 76.99 -10.02 76.99 -8 78 C-5.69 75.36 -3.38 72.72 -1 70 C-2.32 69.01 -3.64 68.02 -5 67 Z M-67 71 C-67.99 72.485 -67.99 72.485 -69 74 C-67.71372289 75.17260611 -66.42080217 76.3379283 -65.125 77.5 C-64.40570313 78.1496875 -63.68640625 78.799375 -62.9453125 79.46875 C-61.15068902 81.20617272 -61.15068902 81.20617272 -59 81 C-60.67028292 77.05205855 -63.1795565 74.18203882 -66 71 C-66.33 71 -66.66 71 -67 71 Z M0 71 C-1.22149091 72.25957096 -2.40279315 73.55832273 -3.5625 74.875 C-4.20316406 75.59429687 -4.84382813 76.31359375 -5.50390625 77.0546875 C-7.20321128 78.85521342 -7.20321128 78.85521342 -7 81 C-3.00499382 79.6302836 -0.19990508 77.74277578 3 75 C2.34 73.68 1.68 72.36 1 71 C0.67 71 0.34 71 0 71 Z M-37 74 C-38.0326802 76.78823655 -38.04509293 77.8677274 -37.0625 80.75 C-36.711875 81.4925 -36.36125 82.235 -36 83 C-35.34 83 -34.68 83 -34 83 C-34 80.03 -34 77.06 -34 74 C-34.99 74 -35.98 74 -37 74 Z M-32 74 C-32 76.97 -32 79.94 -32 83 C-31.34 83 -30.68 83 -30 83 C-29.01 80.03 -28.02 77.06 -27 74 C-28.65 74 -30.3 74 -32 74 Z M-44 75 C-43.46930939 78.82097239 -42.50298434 81.06171403 -40 84 C-39.34 83.67 -38.68 83.34 -38 83 C-38.99 80.36 -39.98 77.72 -41 75 C-41.99 75 -42.98 75 -44 75 Z M-25 75 C-25.99 77.97 -26.98 80.94 -28 84 C-23.47653527 81.73826764 -22.94171334 80.46594067 -21 76 C-22.32 75.67 -23.64 75.34 -25 75 Z M-19 76 C-20.32 78.64 -21.64 81.28 -23 84 C-18.98834738 82.00656233 -18.98834738 82.00656233 -16 79 C-16 78.34 -16 77.68 -16 77 C-16.99 76.67 -17.98 76.34 -19 76 Z M-70 77 C-68.9024777 79.99324263 -68.32317108 80.84610901 -65.375 82.25 C-64.59125 82.4975 -63.8075 82.745 -63 83 C-66.17539556 79.57421051 -66.17539556 79.57421051 -70 77 Z M-48 76 C-48.66 76.66 -49.32 77.32 -50 78 C-48.35 79.65 -46.7 81.3 -45 83 C-45 79.48283697 -45.82445585 78.62878252 -48 76 Z M3 77 C0.36 78.98 -2.28 80.96 -5 83 C-4.67 83.66 -4.34 84.32 -4 85 C-1.03 83.02 1.94 81.04 5 79 C4.34 78.34 3.68 77.68 3 77 Z M-54 79 C-53.67 79.99 -53.34 80.98 -53 82 C-50.49552484 83.21869929 -50.49552484 83.21869929 -48 84 C-49.28062485 82.2925002 -50.61767557 80.62626404 -52 79 C-52.66 79 -53.32 79 -54 79 Z M-14 79 C-15.7143618 80.95927063 -17.38405168 82.95880212 -19 85 C-16.50638429 83.79618552 -14.31856917 82.54571278 -12 81 C-12 80.34 -12 79.68 -12 79 C-12.66 79 -13.32 79 -14 79 Z M-58 82 C-57.01 82.99 -56.02 83.98 -55 85 C-54.34 84.67 -53.68 84.34 -53 84 C-53.66 83.34 -54.32 82.68 -55 82 C-55.99 82 -56.98 82 -58 82 Z M-11 82 C-11.99 83.485 -11.99 83.485 -13 85 C-11.35 84.34 -9.7 83.68 -8 83 C-8.99 82.67 -9.98 82.34 -11 82 Z M-63 83 C-62.34 83.66 -61.68 84.32 -61 85 C-61 84.34 -61 83.68 -61 83 C-61.66 83 -62.32 83 -63 83 Z M-45 89 C-45.96044102 91.07690578 -45.96044102 91.07690578 -46 93 C-40.05961112 97.71134291 -34.35914963 97.54368388 -27 97 C-23.37221143 95.98642409 -23.37221143 95.98642409 -21 94 C-20.03955898 91.92309422 -20.03955898 91.92309422 -20 90 C-26.78812929 84.61631126 -37.81717551 83.56434904 -45 89 Z " fill="#383633" transform="translate(161,83)"/>
<path d="M0 0 C-0.33 2.64 -0.66 5.28 -1 8 C0.27875 8.061875 1.5575 8.12375 2.875 8.1875 C3.59429687 8.22230469 4.31359375 8.25710937 5.0546875 8.29296875 C6.01761719 8.14794922 6.01761719 8.14794922 7 8 C7.66 7.01 8.32 6.02 9 5 C9.66 5 10.32 5 11 5 C11 5.99 11 6.98 11 8 C12.32 8 13.64 8 15 8 C15 6.35 15 4.7 15 3 C15.66 3 16.32 3 17 3 C16.67 4.98 16.34 6.96 16 9 C14.68 9.33 13.36 9.66 12 10 C13.98 12.97 13.98 12.97 16 16 C17.32 15.34 18.64 14.68 20 14 C19.34 12.02 18.68 10.04 18 8 C21.39914975 9.13304992 22.05254451 10.12518475 24 13 C25.65 12.67 27.3 12.34 29 12 C28.505 9.525 28.505 9.525 28 7 C32.95 7 37.9 7 43 7 C43 7.33 43 7.66 43 8 C44.98 8.33 46.96 8.66 49 9 C49 8.34 49 7.68 49 7 C49.66 7 50.32 7 51 7 C51 7.66 51 8.32 51 9 C53.64 9 56.28 9 59 9 C59 8.34 59 7.68 59 7 C58.34 7 57.68 7 57 7 C56.505 5.02 56.505 5.02 56 3 C56.66 3.33 57.32 3.66 58 4 C58 4.66 58 5.32 58 6 C59.32 6 60.64 6 62 6 C62 7.32 62 8.64 62 10 C64.31 10.33 66.62 10.66 69 11 C69.33 9.68 69.66 8.36 70 7 C70.66 7 71.32 7 72 7 C71.67 8.65 71.34 10.3 71 12 C73.97 12.495 73.97 12.495 77 13 C77.680625 11.7625 77.680625 11.7625 78.375 10.5 C78.91125 9.675 79.4475 8.85 80 8 C80.66 8 81.32 8 82 8 C81.34 10.31 80.68 12.62 80 15 C81.32 15.33 82.64 15.66 84 16 C84.29132813 15.4946875 84.58265625 14.989375 84.8828125 14.46875 C86.14595279 12.4667918 87.35245817 10.70317311 89 9 C92.1875 8.625 92.1875 8.625 95 9 C95.66 8.67 96.32 8.34 97 8 C97.99 8.33 98.98 8.66 100 9 C100 6.03 100 3.06 100 0 C102.97 0.495 102.97 0.495 106 1 C104.36696046 13.381852 100.38319752 23.65622776 92 33 C91.38125 33.69996094 90.7625 34.39992187 90.125 35.12109375 C79.42595718 46.53196804 65.33749084 51.71604348 49.875 52.25 C33.55294087 52.02671602 20.31611563 45.47835385 9 34 C8.42507812 33.43539062 7.85015625 32.87078125 7.2578125 32.2890625 C-0.99918537 23.51867616 -4.04890656 12.5696418 -6 1 C-3.92446352 0.4465236 -2.15634036 0 0 0 Z M31 8 C31 8.99 31 9.98 31 11 C33.64 10.67 36.28 10.34 39 10 C38.67 9.34 38.34 8.68 38 8 C35.69 8 33.38 8 31 8 Z M8 9 C5.81162547 11.65092965 5.81162547 11.65092965 6.0625 13.8125 C7.4624752 17.0791088 9.64588594 19.34407644 12 22 C12.99 21.01 13.98 20.02 15 19 C14.02526874 17.33073546 13.04510211 15.66464358 12.0625 14 C11.24458984 12.6078125 11.24458984 12.6078125 10.41015625 11.1875 C9.94480469 10.465625 9.47945312 9.74375 9 9 C8.67 9 8.34 9 8 9 Z M1 10 C1 11.65 1 13.3 1 15 C1.66 14.34 2.32 13.68 3 13 C2.34 12.01 1.68 11.02 1 10 Z M91 10 C89.02 12.97 87.04 15.94 85 19 C85.99 19.99 86.98 20.98 88 22 C89.03590338 20.93106782 90.05333942 19.84421512 91.0625 18.75 C91.63097656 18.14671875 92.19945312 17.5434375 92.78515625 16.921875 C94.22742784 15.07031592 94.22742784 15.07031592 93.80859375 12.828125 C93.14723776 10.80816693 93.14723776 10.80816693 91 10 Z M43 11 C41.73735399 15.29299643 42.37049588 17.87831311 44 22 C45.65 22 47.3 22 49 22 C49 18.37 49 14.74 49 11 C47.02 11 45.04 11 43 11 Z M51 11 C51 14.63 51 18.26 51 22 C52.65 22 54.3 22 56 22 C57.60355101 18.49223216 58.22036864 15.85645121 58 12 C55.69 11.67 53.38 11.34 51 11 Z M98 11 C97.67 11.99 97.34 12.98 97 14 C97.99 14.495 97.99 14.495 99 15 C98.67 13.68 98.34 12.36 98 11 Z M33 13 C33.60990891 16.55780196 34.5783681 19.6828589 36 23 C37.65 23 39.3 23 41 23 C40.85892253 21.54119891 40.71197585 20.08296449 40.5625 18.625 C40.48128906 17.81289062 40.40007812 17.00078125 40.31640625 16.1640625 C40.10909886 13.95727195 40.10909886 13.95727195 39 12 C35.94729537 11.84188612 35.94729537 11.84188612 33 13 Z M61 12 C59.80712589 15.87684087 59 18.91621923 59 23 C60.65 23 62.3 23 64 23 C65.32 19.7 66.64 16.4 68 13 C65.69 12.67 63.38 12.34 61 12 Z M28 14 C27.01 14.66 26.02 15.32 25 16 C26.2491742 19.45925163 27.67527795 22.14693203 30 25 C31.32 24.67 32.64 24.34 34 24 C33.57742724 22.5164999 33.13643678 21.03823576 32.6875 19.5625 C32.44386719 18.73878906 32.20023438 17.91507813 31.94921875 17.06640625 C31.47935547 16.04353516 31.47935547 16.04353516 31 15 C30.01 14.67 29.02 14.34 28 14 Z M70 14 C69.30034557 15.26418246 68.61565237 16.53665402 67.9375 17.8125 C67.55464844 18.52019531 67.17179687 19.22789062 66.77734375 19.95703125 C65.69736489 22.14697801 65.69736489 22.14697801 67 25 C69.70438996 24.63594751 70.74406383 24.31857318 72.484375 22.15234375 C72.90203125 21.42144531 73.3196875 20.69054687 73.75 19.9375 C74.17796875 19.20402344 74.6059375 18.47054687 75.046875 17.71484375 C75.51867187 16.86599609 75.51867187 16.86599609 76 16 C74.02 15.34 72.04 14.68 70 14 Z M4 16 C4.50109958 20.38462134 5.98295115 22.8000997 9 26 C9.66 26 10.32 26 11 26 C9.6062718 21.56541027 7.39417765 19.12621626 4 16 Z M95 16 C93.99421411 17.28716647 92.99553202 18.57988658 92 19.875 C91.443125 20.59429687 90.88625 21.31359375 90.3125 22.0546875 C88.81356623 23.8852085 88.81356623 23.8852085 89 26 C92.33717549 24.6190998 94.22301036 23.1798762 96 20 C95.61702961 17.89437544 95.61702961 17.89437544 95 16 Z M19.4375 18.5 C18.963125 18.995 18.48875 19.49 18 20 C18.92961422 21.15224028 19.8690125 22.29659176 20.8125 23.4375 C21.33457031 24.07558594 21.85664062 24.71367187 22.39453125 25.37109375 C24.00834411 27.2548275 24.00834411 27.2548275 27 28 C27.66 27.34 28.32 26.68 29 26 C27.85793642 24.49712782 26.71125043 22.99776716 25.5625 21.5 C24.92441406 20.6646875 24.28632812 19.829375 23.62890625 18.96875 C23.09136719 18.3190625 22.55382812 17.669375 22 17 C20.75923698 16.88457803 20.75923698 16.88457803 19.4375 18.5 Z M78 17 C75.69 19.97 73.38 22.94 71 26 C72.98 26.99 72.98 26.99 75 28 C77.31 25.36 79.62 22.72 82 20 C80.68 19.01 79.36 18.02 78 17 Z M16 21 C15.01 22.485 15.01 22.485 14 24 C15.28627711 25.17260611 16.57919783 26.3379283 17.875 27.5 C18.59429687 28.1496875 19.31359375 28.799375 20.0546875 29.46875 C21.84931098 31.20617272 21.84931098 31.20617272 24 31 C22.32971708 27.05205855 19.8204435 24.18203882 17 21 C16.67 21 16.34 21 16 21 Z M83 21 C81.77850909 22.25957096 80.59720685 23.55832273 79.4375 24.875 C78.79683594 25.59429687 78.15617187 26.31359375 77.49609375 27.0546875 C75.79678872 28.85521342 75.79678872 28.85521342 76 31 C79.99500618 29.6302836 82.80009492 27.74277578 86 25 C85.34 23.68 84.68 22.36 84 21 C83.67 21 83.34 21 83 21 Z M46 24 C44.9673198 26.78823655 44.95490707 27.8677274 45.9375 30.75 C46.288125 31.4925 46.63875 32.235 47 33 C47.66 33 48.32 33 49 33 C49 30.03 49 27.06 49 24 C48.01 24 47.02 24 46 24 Z M51 24 C51 26.97 51 29.94 51 33 C51.66 33 52.32 33 53 33 C53.99 30.03 54.98 27.06 56 24 C54.35 24 52.7 24 51 24 Z M39 25 C39.53069061 28.82097239 40.49701566 31.06171403 43 34 C43.66 33.67 44.32 33.34 45 33 C44.01 30.36 43.02 27.72 42 25 C41.01 25 40.02 25 39 25 Z M58 25 C57.01 27.97 56.02 30.94 55 34 C59.52346473 31.73826764 60.05828666 30.46594067 62 26 C60.68 25.67 59.36 25.34 58 25 Z M64 26 C62.68 28.64 61.36 31.28 60 34 C64.01165262 32.00656233 64.01165262 32.00656233 67 29 C67 28.34 67 27.68 67 27 C66.01 26.67 65.02 26.34 64 26 Z M13 27 C14.0975223 29.99324263 14.67682892 30.84610901 17.625 32.25 C18.40875 32.4975 19.1925 32.745 20 33 C16.82460444 29.57421051 16.82460444 29.57421051 13 27 Z M35 26 C34.34 26.66 33.68 27.32 33 28 C34.65 29.65 36.3 31.3 38 33 C38 29.48283697 37.17554415 28.62878252 35 26 Z M86 27 C83.36 28.98 80.72 30.96 78 33 C78.33 33.66 78.66 34.32 79 35 C81.97 33.02 84.94 31.04 88 29 C87.34 28.34 86.68 27.68 86 27 Z M29 29 C29.33 29.99 29.66 30.98 30 32 C32.50447516 33.21869929 32.50447516 33.21869929 35 34 C33.71937515 32.2925002 32.38232443 30.62626404 31 29 C30.34 29 29.68 29 29 29 Z M69 29 C67.2856382 30.95927063 65.61594832 32.95880212 64 35 C66.49361571 33.79618552 68.68143083 32.54571278 71 31 C71 30.34 71 29.68 71 29 C70.34 29 69.68 29 69 29 Z M25 32 C25.99 32.99 26.98 33.98 28 35 C28.66 34.67 29.32 34.34 30 34 C29.34 33.34 28.68 32.68 28 32 C27.01 32 26.02 32 25 32 Z M72 32 C71.01 33.485 71.01 33.485 70 35 C71.65 34.34 73.3 33.68 75 33 C74.01 32.67 73.02 32.34 72 32 Z M20 33 C20.66 33.66 21.32 34.32 22 35 C22 34.34 22 33.68 22 33 C21.34 33 20.68 33 20 33 Z M38 39 C37.03955898 41.07690578 37.03955898 41.07690578 37 43 C42.94038888 47.71134291 48.64085037 47.54368388 56 47 C59.62778857 45.98642409 59.62778857 45.98642409 62 44 C62.96044102 41.92309422 62.96044102 41.92309422 63 40 C56.21187071 34.61631126 45.18282449 33.56434904 38 39 Z " fill="#000000" transform="translate(78,133)"/>
<path d="M0 0 C0.7827832 0.03472412 1.56556641 0.06944824 2.37207031 0.10522461 C6.40777205 0.35213272 9.5387704 1.15895399 13.25 2.6875 C14.24 2.3575 15.23 2.0275 16.25 1.6875 C21.7492449 1.64833159 26.68073098 1.7336306 31.4375 4.625 C33.25 6.6875 33.25 6.6875 34.25 8.6875 C34.14300781 9.39261719 34.03601563 10.09773438 33.92578125 10.82421875 C33.50324872 13.79103315 33.41937284 15.79117702 34.25 18.6875 C37.09244141 20.98078349 39.93310566 22.46857259 43.234375 24.01953125 C46.53675392 25.84610612 48.19751214 27.54400525 50.25 30.6875 C50.25 33.3125 50.25 33.3125 49.25 35.6875 C45.96137595 38.79430109 42.61241797 39.56189529 38.25 40.5 C37.033125 40.77457031 35.81625 41.04914063 34.5625 41.33203125 C31.21196751 41.69158132 29.97297438 41.55954488 27.25 39.6875 C29.74590263 36.61174121 31.83313246 36.13777874 35.6875 35.5625 C38.92533441 35.06030528 42.08462295 34.54058034 45.25 33.6875 C42.85075601 28.08926402 38.45084968 26.24976347 33.25 23.6875 C33.3325 24.595 33.415 25.5025 33.5 26.4375 C33.25 29.6875 33.25 29.6875 31.75 32.1875 C28.80051505 33.95719097 28.21328614 33.73512422 25 32.9375 C23.14375 32.31875 23.14375 32.31875 21.25 31.6875 C21.58 32.6775 21.91 33.6675 22.25 34.6875 C20.765 34.1925 20.765 34.1925 19.25 33.6875 C19.25 33.0275 19.25 32.3675 19.25 31.6875 C18.21939453 31.73970703 18.21939453 31.73970703 17.16796875 31.79296875 C16.26691406 31.82003906 15.36585938 31.84710938 14.4375 31.875 C13.09751953 31.92720703 13.09751953 31.92720703 11.73046875 31.98046875 C9.25 31.6875 9.25 31.6875 7.87304688 30.21484375 C5.81529716 28.27842946 4.58764052 28.20018005 1.80078125 27.95703125 C0.95322266 27.87646484 0.10566406 27.79589844 -0.76757812 27.71289062 C-1.64865234 27.64263672 -2.52972656 27.57238281 -3.4375 27.5 C-4.33017578 27.41814453 -5.22285156 27.33628906 -6.14257812 27.25195312 C-8.34399603 27.05182422 -10.54689258 26.86808258 -12.75 26.6875 C-13.245 20.2525 -13.245 20.2525 -13.75 13.6875 C-14.08 17.9775 -14.41 22.2675 -14.75 26.6875 C-17.39 26.6875 -20.03 26.6875 -22.75 26.6875 C-22.75 22.0675 -22.75 17.4475 -22.75 12.6875 C-23.41 12.6875 -24.07 12.6875 -24.75 12.6875 C-24.75 17.3075 -24.75 21.9275 -24.75 26.6875 C-27.39 26.6875 -30.03 26.6875 -32.75 26.6875 C-32.75 22.0675 -32.75 17.4475 -32.75 12.6875 C-33.41 12.6875 -34.07 12.6875 -34.75 12.6875 C-34.75 17.3075 -34.75 21.9275 -34.75 26.6875 C-37.39 26.6875 -40.03 26.6875 -42.75 26.6875 C-42.75 18.4375 -42.75 10.1875 -42.75 1.6875 C-43.41 1.3575 -44.07 1.0275 -44.75 0.6875 C-12.31727712 -0.6001153 -12.31727712 -0.6001153 0 0 Z " fill="#2A2727" transform="translate(156.75,101.3125)"/>
<path d="M0 0 C6.88478044 5.40206417 12.63829019 11.35978645 17 19 C17 19.66 17 20.32 17 21 C13.53058454 20.54177532 10.32604951 20.10868317 7 19 C7 19.66 7 20.32 7 21 C5.515 20.505 5.515 20.505 4 20 C3.9175 19.38125 3.835 18.7625 3.75 18.125 C3.11693478 15.54178709 3.11693478 15.54178709 -0.5625 14.25 C-1.696875 13.8375 -2.83125 13.425 -4 13 C-4 14.98 -4 16.96 -4 19 C-4.99 19 -5.98 19 -7 19 C-7 16.36 -7 13.72 -7 11 C-7.93972656 10.90912109 -7.93972656 10.90912109 -8.8984375 10.81640625 C-9.71570313 10.73261719 -10.53296875 10.64882812 -11.375 10.5625 C-12.59316406 10.44068359 -12.59316406 10.44068359 -13.8359375 10.31640625 C-16 10 -16 10 -18 9 C-17.01 13.95 -17.01 13.95 -16 19 C-27.88 19.33 -39.76 19.66 -52 20 C-51.67 19.34 -51.34 18.68 -51 18 C-50.01 18 -49.02 18 -48 18 C-48 15.03 -48 12.06 -48 9 C-52.95 10.485 -52.95 10.485 -58 12 C-58.33 14.31 -58.66 16.62 -59 19 C-59.99 19 -60.98 19 -62 19 C-62 17.02 -62 15.04 -62 13 C-64.31 13.66 -66.62 14.32 -69 15 C-69.33 16.32 -69.66 17.64 -70 19 C-68.35 19 -66.7 19 -65 19 C-65.66 19.99 -66.32 20.98 -67 22 C-68.84423828 22.32470703 -68.84423828 22.32470703 -71.0703125 22.2578125 C-71.885 22.24363281 -72.6996875 22.22945312 -73.5390625 22.21484375 C-74.81910156 22.17037109 -74.81910156 22.17037109 -76.125 22.125 C-87.86519172 21.72140301 -87.86519172 21.72140301 -99 25.0625 C-100.1446875 25.60583984 -100.1446875 25.60583984 -101.3125 26.16015625 C-101.869375 26.43730469 -102.42625 26.71445313 -103 27 C-102.61479436 29.53910197 -102.29902057 30.72751123 -100.37109375 32.484375 C-99.41396484 33.11085938 -99.41396484 33.11085938 -98.4375 33.75 C-97.79683594 34.17796875 -97.15617187 34.6059375 -96.49609375 35.046875 C-96.00238281 35.36140625 -95.50867188 35.6759375 -95 36 C-95.33 37.32 -95.66 38.64 -96 40 C-106.36162362 34.79704797 -106.36162362 34.79704797 -109 30 C-109 27.375 -109 27.375 -108 25 C-104.7478316 21.93366979 -101.57427177 21.23418937 -97.25 20.375 C-96.00605469 20.11589844 -94.76210937 19.85679688 -93.48046875 19.58984375 C-90.72908301 19.12355952 -88.32772503 18.94293266 -85.5625 18.9375 C-80.60978361 17.63415358 -79.55310878 14.96653757 -76.89453125 10.765625 C-69.61975725 0.14595491 -57.59145024 -6.5418456 -45.23828125 -9.52734375 C-28.93530586 -11.90690952 -13.56865732 -9.89014145 0 0 Z M-43 -5 C-43.33 -4.01 -43.66 -3.02 -44 -2 C-40.7 -2.33 -37.4 -2.66 -34 -3 C-34 -3.99 -34 -4.98 -34 -6 C-37.34252724 -6.07427838 -39.8035914 -6.06546953 -43 -5 Z M-32 -6 C-32 -5.01 -32 -4.02 -32 -3 C-28.7 -2.67 -25.4 -2.34 -22 -2 C-22.33 -2.99 -22.66 -3.98 -23 -5 C-25.97 -5.33 -28.94 -5.66 -32 -6 Z M-21 -5 C-20.67 -4.01 -20.34 -3.02 -20 -2 C-17.36 -1.67 -14.72 -1.34 -12 -1 C-12.66 -1.99 -13.32 -2.98 -14 -4 C-17.56769552 -4.73606499 -17.56769552 -4.73606499 -21 -5 Z M-53 -3 C-53 -2.34 -53 -1.68 -53 -1 C-49.535 -1.495 -49.535 -1.495 -46 -2 C-45.67 -2.99 -45.34 -3.98 -45 -5 C-47.88395737 -5 -50.29477815 -3.94094673 -53 -3 Z M-59.625 -0.5 C-60.07875 -0.005 -60.5325 0.49 -61 1 C-59.02463255 0.65213292 -59.02463255 0.65213292 -57 0 C-56.67 -0.66 -56.34 -1.32 -56 -2 C-58.12364481 -2.22609337 -58.12364481 -2.22609337 -59.625 -0.5 Z M-10 -2 C-9.01 -0.515 -9.01 -0.515 -8 1 C-7.01 0.67 -6.02 0.34 -5 0 C-7.475 -0.99 -7.475 -0.99 -10 -2 Z M-44 0 C-44 0.33 -44 0.66 -44 1 C-40.7 1 -37.4 1 -34 1 C-34 0.67 -34 0.34 -34 0 C-37.3 0 -40.6 0 -44 0 Z M-32 0 C-32 0.33 -32 0.66 -32 1 C-28.37 1 -24.74 1 -21 1 C-21 0.67 -21 0.34 -21 0 C-24.63 0 -28.26 0 -32 0 Z M-52 1 C-52 1.33 -52 1.66 -52 2 C-50.35 2 -48.7 2 -47 2 C-47 1.67 -47 1.34 -47 1 C-48.65 1 -50.3 1 -52 1 Z M-19 1 C-19 1.33 -19 1.66 -19 2 C-17.35 2 -15.7 2 -14 2 C-14 1.67 -14 1.34 -14 1 C-15.65 1 -17.3 1 -19 1 Z M-56 2 C-52 3 -52 3 -52 3 Z M-45 4 C-45 4.66 -45 5.32 -45 6 C-41.37 6 -37.74 6 -34 6 C-34 5.01 -34 4.02 -34 3 C-35.8871875 2.9690625 -35.8871875 2.9690625 -37.8125 2.9375 C-38.52019531 2.92589844 -39.22789063 2.91429688 -39.95703125 2.90234375 C-42.20305461 2.91736783 -42.20305461 2.91736783 -45 4 Z M-32 3 C-32 3.99 -32 4.98 -32 6 C-28.37 6 -24.74 6 -21 6 C-21 5.34 -21 4.68 -21 4 C-23.75078884 3.08307039 -25.35948913 2.89113917 -28.1875 2.9375 C-29.445625 2.958125 -30.70375 2.97875 -32 3 Z M-18 4 C-18 4.99 -18 5.98 -18 7 C-13.05 7.99 -13.05 7.99 -8 9 C-8 8.01 -8 7.02 -8 6 C-11.3 5.34 -14.6 4.68 -18 4 Z M-57 6 C-57 6.99 -57 7.98 -57 9 C-54.03 8.34 -51.06 7.68 -48 7 C-48 6.01 -48 5.02 -48 4 C-51.15332957 4 -53.99457031 5.10950231 -57 6 Z M-61 7 C-64.465 8.485 -64.465 8.485 -68 10 C-68 10.66 -68 11.32 -68 12 C-65.69 11.34 -63.38 10.68 -61 10 C-61 9.01 -61 8.02 -61 7 Z M-46 9 C-46 11.97 -46 14.94 -46 18 C-40.06 17.505 -40.06 17.505 -34 17 C-34 14.03 -34 11.06 -34 8 C-35.85625 7.9690625 -35.85625 7.9690625 -37.75 7.9375 C-38.44609375 7.92589844 -39.1421875 7.91429688 -39.859375 7.90234375 C-42.33999176 7.94469744 -42.33999176 7.94469744 -46 9 Z M-32 8 C-32 10.97 -32 13.94 -32 17 C-28.04 17.33 -24.08 17.66 -20 18 C-20 15.03 -20 12.06 -20 9 C-23.12889199 8.217777 -25.1400091 7.88566682 -28.25 7.9375 C-29.4875 7.958125 -30.725 7.97875 -32 8 Z M-5 8 C-5 8.66 -5 9.32 -5 10 C-2.69 10.66 -0.38 11.32 2 12 C2 11.34 2 10.68 2 10 C-0.64738916 8.5393715 -1.89448334 8 -5 8 Z M-72 12 C-72.33 12.66 -72.66 13.32 -73 14 C-72.34 14 -71.68 14 -71 14 C-71.33 13.34 -71.66 12.68 -72 12 Z M5 12 C5 12.66 5 13.32 5 14 C6.32 14.33 7.64 14.66 9 15 C8.02149805 13.97895449 7.02019573 12.9793879 6 12 C5.67 12 5.34 12 5 12 Z M-75 14 C-75.33 14.66 -75.66 15.32 -76 16 C-75.01 15.67 -74.02 15.34 -73 15 C-73.66 14.67 -74.32 14.34 -75 14 Z M-73 17 C-73.66 17.66 -74.32 18.32 -75 19 C-74.01 19 -73.02 19 -72 19 C-72.33 18.34 -72.66 17.68 -73 17 Z " fill="#000000" transform="translate(161,83)"/>
<path d="M0 0 C1.1446875 -0.00773437 2.289375 -0.01546875 3.46875 -0.0234375 C6.5 0.375 6.5 0.375 8.3828125 1.3984375 C10.17324621 4.56612792 9.93164774 7.83766316 9.875 11.375 C9.88660156 12.09945312 9.89820313 12.82390625 9.91015625 13.5703125 C9.89412142 16.46727213 9.82658572 18.79516711 8.38671875 21.3515625 C5.55225986 22.88909507 3.1381223 22.77145669 -0.0625 22.75 C-1.21878906 22.75773437 -2.37507813 22.76546875 -3.56640625 22.7734375 C-4.53449219 22.64195312 -5.50257812 22.51046875 -6.5 22.375 C-7.16 21.385 -7.82 20.395 -8.5 19.375 C-8.809375 20.014375 -9.11875 20.65375 -9.4375 21.3125 C-13.80139372 25.67639372 -21.25137685 24.41689318 -27.0625 24.4375 C-28.87505052 24.42165998 -30.68759041 24.40260015 -32.5 24.375 C-32.83695862 21.64623692 -33.16968429 18.91706837 -33.5 16.1875 C-33.59539062 15.41857422 -33.69078125 14.64964844 -33.7890625 13.85742188 C-34.25192894 10.00571189 -34.62467468 6.26329149 -34.5 2.375 C-29.92321773 1.23308826 -25.49783009 1.19147399 -20.8125 1.1875 C-19.65524414 1.16913086 -19.65524414 1.16913086 -18.47460938 1.15039062 C-16.48167293 1.14516896 -14.48916662 1.2523659 -12.5 1.375 C-10.5 3.375 -10.5 3.375 -10.375 7 C-10.41625 8.11375 -10.4575 9.2275 -10.5 10.375 C-11.49 10.87 -11.49 10.87 -12.5 11.375 C-11.84 12.035 -11.18 12.695 -10.5 13.375 C-10.46261719 12.68792969 -10.42523438 12.00085938 -10.38671875 11.29296875 C-10.32097656 10.39191406 -10.25523438 9.49085937 -10.1875 8.5625 C-10.12949219 7.66917969 -10.07148437 6.77585937 -10.01171875 5.85546875 C-9.5 3.375 -9.5 3.375 -8.36328125 1.57421875 C-5.58440246 -0.21428395 -3.27101105 -0.02210143 0 0 Z " fill="#EDEDED" transform="translate(102.5,105.625)"/>
<path d="M0 0 C4.29 0 8.58 0 13 0 C13 1.65 13 3.3 13 5 C13.66 5 14.32 5 15 5 C15 3.35 15 1.7 15 0 C19.29 0 23.58 0 28 0 C28 7.59 28 15.18 28 23 C25.36 23 22.72 23 20 23 C20 18.38 20 13.76 20 9 C19.34 9 18.68 9 18 9 C18 13.62 18 18.24 18 23 C15.36 23 12.72 23 10 23 C10 18.38 10 13.76 10 9 C9.34 9 8.68 9 8 9 C8 13.62 8 18.24 8 23 C5.36 23 2.72 23 0 23 C0 15.41 0 7.82 0 0 Z " fill="#FAFAFA" transform="translate(114,105)"/>
<path d="M0 0 C2.701875 -0.04125 5.40375 -0.0825 8.1875 -0.125 C9.02949951 -0.14320801 9.87149902 -0.16141602 10.73901367 -0.18017578 C14.93953445 -0.21113172 18.18983435 0.00243742 22 2 C23 3 23 3 23.1875 6.375 C23 10 23 10 21 13 C21.33 13.33 21.66 13.66 22 14 C22.27314815 19.73611111 22.27314815 19.73611111 22 22 C20 24 20 24 17.4609375 24.23046875 C16.44257813 24.21628906 15.42421875 24.20210937 14.375 24.1875 C13.37210938 24.18105469 12.36921875 24.17460937 11.3359375 24.16796875 C7.54209431 23.97694386 3.76931568 23.47116446 0 23 C0 15.41 0 7.82 0 0 Z " fill="#EFEFEF" transform="translate(144,105)"/>
<path d="M0 0 C0.86109375 -0.01417969 1.7221875 -0.02835938 2.609375 -0.04296875 C5.25 0.1875 5.25 0.1875 7.59375 1.1953125 C11.08306446 2.49867408 14.33694067 2.36645564 18 2.25 C20.42158977 2.18843416 22.82656454 2.16681214 25.25 2.1875 C25.58 2.5175 25.91 2.8475 26.25 3.1875 C26.58 2.5275 26.91 1.8675 27.25 1.1875 C37.48 1.1875 47.71 1.1875 58.25 1.1875 C58.745 2.1775 58.745 2.1775 59.25 3.1875 C59.58 2.5275 59.91 1.8675 60.25 1.1875 C61.24 1.1875 62.23 1.1875 63.25 1.1875 C63.745 2.1775 63.745 2.1775 64.25 3.1875 C65.57 2.8575 66.89 2.5275 68.25 2.1875 C67.59 4.1675 66.93 6.1475 66.25 8.1875 C65.26 8.1875 64.27 8.1875 63.25 8.1875 C62.26 7.1975 62.26 7.1975 61.25 6.1875 C60.92 6.8475 60.59 7.5075 60.25 8.1875 C57.25 8.1875 57.25 8.1875 55.5625 6.6875 C55.129375 6.1925 54.69625 5.6975 54.25 5.1875 C53.92 6.5075 53.59 7.8275 53.25 9.1875 C51.27 9.1875 49.29 9.1875 47.25 9.1875 C47.25 7.5375 47.25 5.8875 47.25 4.1875 C46.92 5.8375 46.59 7.4875 46.25 9.1875 C45.17516357 9.22508423 45.17516357 9.22508423 44.07861328 9.26342773 C40.84388486 9.37919751 37.60946159 9.50200969 34.375 9.625 C33.24707031 9.66431641 32.11914062 9.70363281 30.95703125 9.74414062 C29.88066406 9.78603516 28.80429688 9.82792969 27.6953125 9.87109375 C26.20281982 9.92608032 26.20281982 9.92608032 24.68017578 9.98217773 C22.24220499 10.03709532 22.24220499 10.03709532 20.25 11.1875 C18.125 10.75 18.125 10.75 16.25 10.1875 C16.25 8.5375 16.25 6.8875 16.25 5.1875 C15.59 5.1875 14.93 5.1875 14.25 5.1875 C14.25 6.8375 14.25 8.4875 14.25 10.1875 C12.93 10.1875 11.61 10.1875 10.25 10.1875 C9.92 9.1975 9.59 8.2075 9.25 7.1875 C8.87875 7.8475 8.5075 8.5075 8.125 9.1875 C6.25 11.1875 6.25 11.1875 3.1875 11.5 C0.25 11.1875 0.25 11.1875 -1.75 10.1875 C-1.42 7.5475 -1.09 4.9075 -0.75 2.1875 C-1.74 2.5175 -2.73 2.8475 -3.75 3.1875 C-4.41 2.5275 -5.07 1.8675 -5.75 1.1875 C-4.11162655 -0.45087345 -2.24983422 0.01664079 0 0 Z " fill="#496028" transform="translate(78.75,130.8125)"/>
<path d="M0 0 C1.73443359 0.00773437 1.73443359 0.00773437 3.50390625 0.015625 C4.65761719 0.01046875 5.81132813 0.0053125 7 0 C10.06640625 0.265625 10.06640625 0.265625 13.06640625 2.265625 C9.44711373 4.07527126 5.12757337 3.61945254 1.1328125 3.7890625 C-1.86084369 4.04530413 -1.86084369 4.04530413 -3.80078125 5.44921875 C-5.36309914 7.95431467 -5.44865745 10.02170786 -5.62109375 12.953125 C-5.68683594 13.94699219 -5.75257812 14.94085938 -5.8203125 15.96484375 C-5.85769531 16.72410156 -5.89507812 17.48335937 -5.93359375 18.265625 C-7.25359375 17.275625 -8.57359375 16.285625 -9.93359375 15.265625 C-8.94359375 14.935625 -7.95359375 14.605625 -6.93359375 14.265625 C-7.11823741 9.92378298 -7.11823741 9.92378298 -8.93359375 6.265625 C-10.56832257 6.17862158 -12.2067343 6.15861437 -13.84375 6.16796875 C-15.3277832 6.17280273 -15.3277832 6.17280273 -16.84179688 6.17773438 C-17.88271484 6.18611328 -18.92363281 6.19449219 -19.99609375 6.203125 C-21.56327148 6.20989258 -21.56327148 6.20989258 -23.16210938 6.21679688 C-25.75266035 6.22862587 -28.34309934 6.24510811 -30.93359375 6.265625 C-30.78921875 7.09964844 -30.64484375 7.93367188 -30.49609375 8.79296875 C-30.31046875 9.91832031 -30.12484375 11.04367188 -29.93359375 12.203125 C-29.74796875 13.30527344 -29.56234375 14.40742187 -29.37109375 15.54296875 C-28.86924934 19.81312696 -28.84588393 23.97332551 -28.93359375 28.265625 C-25.49345916 28.04584235 -22.05770147 27.78463539 -18.62109375 27.515625 C-17.64462891 27.45375 -16.66816406 27.391875 -15.66210938 27.328125 C-14.72431641 27.25078125 -13.78652344 27.1734375 -12.8203125 27.09375 C-11.52420044 26.9994873 -11.52420044 26.9994873 -10.2019043 26.90332031 C-7.28662008 26.08373982 -6.48510424 24.79598546 -4.93359375 22.265625 C-4.27359375 23.255625 -3.61359375 24.245625 -2.93359375 25.265625 C-0.30662311 25.48699893 2.07534589 25.54724525 4.69140625 25.453125 C5.3978125 25.43958984 6.10421875 25.42605469 6.83203125 25.41210938 C8.57714753 25.3767354 10.32187233 25.32292721 12.06640625 25.265625 C12.56140625 23.780625 12.56140625 23.780625 13.06640625 22.265625 C14.27416205 25.88889239 13.60951753 26.90708869 12.06640625 30.265625 C10.41640625 30.265625 8.76640625 30.265625 7.06640625 30.265625 C7.06640625 32.245625 7.06640625 34.225625 7.06640625 36.265625 C6.40640625 34.945625 5.74640625 33.625625 5.06640625 32.265625 C3.87402344 32.28882813 2.68164062 32.31203125 1.453125 32.3359375 C-0.11327499 32.35469678 -1.67968175 32.37289681 -3.24609375 32.390625 C-4.03177734 32.40738281 -4.81746094 32.42414063 -5.62695312 32.44140625 C-6.76293945 32.45107422 -6.76293945 32.45107422 -7.921875 32.4609375 C-8.96661987 32.47664795 -8.96661987 32.47664795 -10.0324707 32.49267578 C-11.93359375 32.265625 -11.93359375 32.265625 -14.93359375 30.265625 C-17.44944266 30.02411727 -17.44944266 30.02411727 -20.12109375 30.140625 C-21.47267578 30.16769531 -21.47267578 30.16769531 -22.8515625 30.1953125 C-23.53863281 30.21851563 -24.22570312 30.24171875 -24.93359375 30.265625 C-24.60359375 30.925625 -24.27359375 31.585625 -23.93359375 32.265625 C-26.18359375 33.015625 -26.18359375 33.015625 -28.93359375 33.265625 C-31.50105023 31.25869673 -32.75632622 29.91691109 -33.61889648 26.74780273 C-33.70083252 25.82427002 -33.78276855 24.9007373 -33.8671875 23.94921875 C-33.95806641 22.93794922 -34.04894531 21.92667969 -34.14257812 20.88476562 C-34.21798828 19.83482422 -34.29339844 18.78488281 -34.37109375 17.703125 C-34.47357422 16.64931641 -34.57605469 15.59550781 -34.68164062 14.50976562 C-35.30752594 6.78722787 -35.30752594 6.78722787 -33.65698242 4.48486328 C-28.07569491 0.5362941 -18.01164282 2.22959734 -11.47265625 2.39257812 C-10.65796875 2.40353516 -9.84328125 2.41449219 -9.00390625 2.42578125 C-8.26930176 2.44261963 -7.53469727 2.45945801 -6.77783203 2.47680664 C-3.74802548 2.12986692 -3.34965391 0.30329756 0 0 Z " fill="#2E2B2B" transform="translate(98.93359375,101.734375)"/>
<path d="M0 0 C0.95648438 -0.02578125 1.91296875 -0.0515625 2.8984375 -0.078125 C6.1225252 0.30987409 7.30915271 1.00389234 9.625 3.25 C9.98730469 5.51831055 9.98730469 5.51831055 9.796875 8.13671875 C9.73886719 9.07451172 9.68085938 10.01230469 9.62109375 10.97851562 C9.53988281 11.95498047 9.45867187 12.93144531 9.375 13.9375 C9.30925781 14.92556641 9.24351562 15.91363281 9.17578125 16.93164062 C9.01066427 19.37301308 8.82639619 21.81139617 8.625 24.25 C0.875 24.375 0.875 24.375 -1.375 23.25 C-2.74842831 23.1810528 -4.12502102 23.16532292 -5.5 23.1875 C-7.418125 23.2184375 -7.418125 23.2184375 -9.375 23.25 C-9.42901695 20.33308475 -9.46868066 17.41717276 -9.5 14.5 C-9.51675781 13.675 -9.53351563 12.85 -9.55078125 12 C-9.55722656 11.20078125 -9.56367188 10.4015625 -9.5703125 9.578125 C-9.58078613 8.8449707 -9.59125977 8.11181641 -9.60205078 7.35644531 C-9.33835992 4.91007461 -8.66909777 3.33395736 -7.375 1.25 C-4.80935275 -0.03282363 -2.86466931 0.04608047 0 0 Z " fill="#F2F1F1" transform="translate(177.375,106.75)"/>
<path d="M0 0 C1.73056641 -0.02513672 1.73056641 -0.02513672 3.49609375 -0.05078125 C6.5625 0.3125 6.5625 0.3125 8.44921875 1.33203125 C10.2321127 4.50370575 9.99415675 7.77460052 9.9375 11.3125 C9.94910156 12.03695312 9.96070312 12.76140625 9.97265625 13.5078125 C9.95662142 16.40477213 9.88908572 18.73266711 8.44921875 21.2890625 C5.61475986 22.82659507 3.2006223 22.70895669 0 22.6875 C-1.15628906 22.69523437 -2.31257813 22.70296875 -3.50390625 22.7109375 C-4.47199219 22.57945312 -5.44007812 22.44796875 -6.4375 22.3125 C-9.01278248 18.44957629 -8.73204471 15.22303122 -8.6875 10.75 C-8.69523437 9.96947266 -8.70296875 9.18894531 -8.7109375 8.38476562 C-8.68532794 0.96439594 -7.20120555 0.0240843 0 0 Z " fill="#F4F4F4" transform="translate(102.4375,105.6875)"/>
<path d="M0 0 C0.66 0 1.32 0 2 0 C2.23074219 0.54269531 2.46148437 1.08539063 2.69921875 1.64453125 C4.76984936 6.1868237 6.22988356 8.92071847 11 11 C11.99 11.33 12.98 11.66 14 12 C14 12.66 14 13.32 14 14 C13.45730469 14.23074219 12.91460937 14.46148437 12.35546875 14.69921875 C7.82517297 16.76438061 5.03219982 18.21835336 3 23 C2.30420546 25.19130534 2.30420546 25.19130534 2 27 C1.34 27 0.68 27 0 27 C-0.17015625 26.45730469 -0.3403125 25.91460937 -0.515625 25.35546875 C-2.40844072 19.65644924 -2.40844072 19.65644924 -7 16 C-8.64797236 15.28837557 -10.31165408 14.60968047 -12 14 C-12 13.34 -12 12.68 -12 12 C-10.906875 11.566875 -9.81375 11.13375 -8.6875 10.6875 C-5.89443802 9.47116656 -3.79297556 8.54791263 -2 6 C-0.79950593 2.89992799 -0.79950593 2.89992799 0 0 Z " fill="#000000" transform="translate(184,72)"/>
<path d="M0 0 C1.73443359 0.00773437 1.73443359 0.00773437 3.50390625 0.015625 C4.65761719 0.01046875 5.81132813 0.0053125 7 0 C10.06640625 0.265625 10.06640625 0.265625 13.06640625 2.265625 C9.44711373 4.07527126 5.12757337 3.61945254 1.1328125 3.7890625 C-1.86084369 4.04530413 -1.86084369 4.04530413 -3.80078125 5.44921875 C-5.36309914 7.95431467 -5.44865745 10.02170786 -5.62109375 12.953125 C-5.68683594 13.94699219 -5.75257812 14.94085938 -5.8203125 15.96484375 C-5.85769531 16.72410156 -5.89507812 17.48335937 -5.93359375 18.265625 C-7.25359375 17.275625 -8.57359375 16.285625 -9.93359375 15.265625 C-8.94359375 14.935625 -7.95359375 14.605625 -6.93359375 14.265625 C-7.11823741 9.92378298 -7.11823741 9.92378298 -8.93359375 6.265625 C-10.56832257 6.17862158 -12.2067343 6.15861437 -13.84375 6.16796875 C-15.3277832 6.17280273 -15.3277832 6.17280273 -16.84179688 6.17773438 C-17.88271484 6.18611328 -18.92363281 6.19449219 -19.99609375 6.203125 C-21.56327148 6.20989258 -21.56327148 6.20989258 -23.16210938 6.21679688 C-25.75266035 6.22862587 -28.34309934 6.24510811 -30.93359375 6.265625 C-30.77246094 7.01457031 -30.61132812 7.76351562 -30.4453125 8.53515625 C-29.82339221 11.85364695 -29.74291048 14.89688716 -29.93359375 18.265625 C-30.59359375 18.925625 -31.25359375 19.585625 -31.93359375 20.265625 C-34.06108804 17.07438356 -34.36914977 15.50490925 -34.74609375 11.765625 C-34.85566406 10.8065625 -34.96523438 9.8475 -35.078125 8.859375 C-34.93359375 6.265625 -34.93359375 6.265625 -33.9453125 4.484375 C-27.78262613 0.75086403 -18.42408717 2.21931738 -11.47265625 2.39257812 C-10.65796875 2.40353516 -9.84328125 2.41449219 -9.00390625 2.42578125 C-8.26930176 2.44261963 -7.53469727 2.45945801 -6.77783203 2.47680664 C-3.74802548 2.12986692 -3.34965391 0.30329756 0 0 Z " fill="#282425" transform="translate(98.93359375,101.734375)"/>
<path d="M0 0 C2.64 0 5.28 0 8 0 C7.67 1.32 7.34 2.64 7 4 C7.66 4.33 8.32 4.66 9 5 C9.99 3.68 10.98 2.36 12 1 C13.65 1.33 15.3 1.66 17 2 C17 2.99 17 3.98 17 5 C17.99 5 18.98 5 20 5 C20 3.68 20 2.36 20 1 C26.625 0.75 26.625 0.75 30 3 C29.67 4.98 29.34 6.96 29 9 C25.47923768 9.05855176 21.9586024 9.0937806 18.4375 9.125 C16.9515332 9.15013672 16.9515332 9.15013672 15.43554688 9.17578125 C9.87271509 9.21274359 5.25156925 8.87082551 0 7 C0 4.69 0 2.38 0 0 Z " fill="#3F5124" transform="translate(149,133)"/>
<path d="M0 0 C3.95568579 0.02805451 6.61374893 0.6150671 10.25 2.1875 C12.5820802 2.26396165 14.91845878 2.27893299 17.25 2.1875 C17.25 4.4975 17.25 6.8075 17.25 9.1875 C18.24 9.1875 19.23 9.1875 20.25 9.1875 C20.25 8.5275 20.25 7.8675 20.25 7.1875 C21.24 7.1875 22.23 7.1875 23.25 7.1875 C23.25 7.8475 23.25 8.5075 23.25 9.1875 C24.57 9.5175 25.89 9.8475 27.25 10.1875 C26.46625 10.166875 25.6825 10.14625 24.875 10.125 C22.26885039 10.00065937 22.26885039 10.00065937 20.25 11.1875 C18.125 10.75 18.125 10.75 16.25 10.1875 C16.25 8.5375 16.25 6.8875 16.25 5.1875 C15.59 5.1875 14.93 5.1875 14.25 5.1875 C14.25 6.8375 14.25 8.4875 14.25 10.1875 C12.93 10.1875 11.61 10.1875 10.25 10.1875 C9.92 9.1975 9.59 8.2075 9.25 7.1875 C8.87875 7.8475 8.5075 8.5075 8.125 9.1875 C6.25 11.1875 6.25 11.1875 3.1875 11.5 C0.25 11.1875 0.25 11.1875 -1.75 10.1875 C-1.42 7.5475 -1.09 4.9075 -0.75 2.1875 C-1.74 2.5175 -2.73 2.8475 -3.75 3.1875 C-4.41 2.5275 -5.07 1.8675 -5.75 1.1875 C-4.11162655 -0.45087345 -2.24983422 0.01664079 0 0 Z " fill="#282C1E" transform="translate(78.75,130.8125)"/>
<path d="M0 0 C6.52509853 1.05874615 11.84929484 3.95170938 16.625 8.5 C18 11 18 11 18 13.625 C16.75589428 16.57975108 15.72382804 17.32000738 13 19 C9.6875 20.01953125 9.6875 20.01953125 6 20.8125 C4.783125 21.08707031 3.56625 21.36164063 2.3125 21.64453125 C-1.03803249 22.00408132 -2.27702562 21.87204488 -5 20 C-2.50409737 16.92424121 -0.41686754 16.45027874 3.4375 15.875 C6.67533441 15.37280528 9.83462295 14.85308034 13 14 C10.87605541 9.83678634 8.92289419 8.04585754 4.8125 5.875 C2.08203125 4.4296875 2.08203125 4.4296875 0 3 C0 2.01 0 1.02 0 0 Z " fill="#000000" transform="translate(189,121)"/>
<path d="M0 0 C3.96 0 7.92 0 12 0 C12.33 0.66 12.66 1.32 13 2 C13.33 1.34 13.66 0.68 14 0 C14.99 0 15.98 0 17 0 C17.33 0.66 17.66 1.32 18 2 C19.32 1.67 20.64 1.34 22 1 C21.34 2.98 20.68 4.96 20 7 C19.01 7 18.02 7 17 7 C16.34 6.34 15.68 5.68 15 5 C14.67 5.66 14.34 6.32 14 7 C13.01 7 12.02 7 11 7 C10 5.33333333 9 3.66666667 8 2 C7.01 2 6.02 2 5 2 C5 3.65 5 5.3 5 7 C4.01 7 3.02 7 2 7 C2 5.35 2 3.7 2 2 C1.34 2 0.68 2 0 2 C0 1.34 0 0.68 0 0 Z " fill="#87C537" transform="translate(125,132)"/>
<path d="M0 0 C2.64 0 5.28 0 8 0 C7.67 1.32 7.34 2.64 7 4 C7.66 4.33 8.32 4.66 9 5 C9.99 3.68 10.98 2.36 12 1 C13.65 1.33 15.3 1.66 17 2 C17.66 3.98 18.32 5.96 19 8 C18.01 8 17.02 8 16 8 C16 7.34 16 6.68 16 6 C15.29488281 6.16371094 14.58976563 6.32742187 13.86328125 6.49609375 C10.90341312 7.01699824 8.18938727 7.09866732 5.1875 7.0625 C3.72376953 7.04896484 3.72376953 7.04896484 2.23046875 7.03515625 C1.12638672 7.01775391 1.12638672 7.01775391 0 7 C0 4.69 0 2.38 0 0 Z " fill="#8ED039" transform="translate(149,133)"/>
<path d="M0 0 C1.32 0.33 2.64 0.66 4 1 C4 3.97 4 6.94 4 10 C10.27 9.67 16.54 9.34 23 9 C23 9.33 23 9.66 23 10 C18.05 10.66 13.1 11.32 8 12 C8.33 12.66 8.66 13.32 9 14 C6.75 14.75 6.75 14.75 4 15 C1.6875 13.75 1.6875 13.75 0 11 C-0.33405341 7.30950515 -0.22933391 3.69482411 0 0 Z " fill="#3F3C3D" transform="translate(66,120)"/>
<path d="M0 0 C0.33 0 0.66 0 1 0 C1.33 1.65 1.66 3.3 2 5 C4.475 5.495 4.475 5.495 7 6 C7 6.99 7 7.98 7 9 C4.525 8.505 4.525 8.505 2 8 C2.33 8.99 2.66 9.98 3 11 C2.01 10.67 1.02 10.34 0 10 C0 9.34 0 8.68 0 8 C-0.68707031 8.03480469 -1.37414062 8.06960937 -2.08203125 8.10546875 C-2.98308594 8.13253906 -3.88414062 8.15960938 -4.8125 8.1875 C-5.70582031 8.22230469 -6.59914062 8.25710937 -7.51953125 8.29296875 C-10.41647515 7.95081002 -11.22555028 7.24606427 -13 5 C-11.68 3.68 -10.36 2.36 -9 1 C-8.67 1.99 -8.34 2.98 -8 4 C-5.36 4.33 -2.72 4.66 0 5 C0 3.35 0 1.7 0 0 Z " fill="#282524" transform="translate(176,125)"/>
<path d="M0 0 C0 8.25 0 16.5 0 25 C-1.71367057 21.57265885 -2.25357053 20.42144826 -2.4140625 16.890625 C-2.45273438 16.13652344 -2.49140625 15.38242188 -2.53125 14.60546875 C-2.5621875 13.82816406 -2.593125 13.05085938 -2.625 12.25 C-2.66367188 11.45722656 -2.70234375 10.66445312 -2.7421875 9.84765625 C-2.836108 7.89880584 -2.91912822 5.94943549 -3 4 C-9.93 3.505 -9.93 3.505 -17 3 C-17 2.67 -17 2.34 -17 2 C-16.08476563 1.93941406 -15.16953125 1.87882812 -14.2265625 1.81640625 C-12.44378906 1.69072266 -12.44378906 1.69072266 -10.625 1.5625 C-9.44164063 1.48128906 -8.25828125 1.40007812 -7.0390625 1.31640625 C-4.40001916 1.04164724 -2.56464354 0 0 0 Z " fill="#5A5758" transform="translate(114,103)"/>
<path d="M0 0 C0.433125 0.639375 0.86625 1.27875 1.3125 1.9375 C2.91239177 4.26746003 2.91239177 4.26746003 6 5 C6 5.99 6 6.98 6 8 C5.38125 8.268125 4.7625 8.53625 4.125 8.8125 C1.7004767 9.95556848 1.7004767 9.95556848 0 13 C-0.433125 12.360625 -0.86625 11.72125 -1.3125 11.0625 C-2.91239177 8.73253997 -2.91239177 8.73253997 -6 8 C-4.768606 4.30581799 -2.79208646 2.64890254 0 0 Z " fill="#000000" transform="translate(198,95)"/>
<path d="M0 0 C0 2.31 0 4.62 0 7 C0.99 7 1.98 7 3 7 C3 6.34 3 5.68 3 5 C3.99 5 4.98 5 6 5 C6 5.66 6 6.32 6 7 C7.32 7.33 8.64 7.66 10 8 C8.824375 7.9690625 8.824375 7.9690625 7.625 7.9375 C5.01885039 7.81315937 5.01885039 7.81315937 3 9 C0.875 8.5625 0.875 8.5625 -1 8 C-1 6.35 -1 4.7 -1 3 C-1.66 3 -2.32 3 -3 3 C-3 4.65 -3 6.3 -3 8 C-4.32 8 -5.64 8 -7 8 C-7 6.35 -7 4.7 -7 3 C-7.66 3 -8.32 3 -9 3 C-9 2.34 -9 1.68 -9 1 C-6.04335481 -0.4783226 -3.25770263 -0.06032783 0 0 Z " fill="#3F4F24" transform="translate(96,133)"/>
<path d="M0 0 C0.38133299 1.9914056 0.71325582 3.99279077 1 6 C0 7 0 7 -2.9375 7.125 C-6 7 -6 7 -8 6 C-8 4.35 -8 2.7 -8 1 C-5.29120665 -0.35439668 -2.99066732 -0.06501451 0 0 Z " fill="#85C236" transform="translate(85,135)"/>
<path d="M0 0 C6.15234375 -0.09765625 6.15234375 -0.09765625 8 0 C9 1 9 1 9.0625 3.5625 C9.041875 4.366875 9.02125 5.17125 9 6 C6.03 5.505 6.03 5.505 3 5 C3 5.66 3 6.32 3 7 C2.01 7 1.02 7 0 7 C0 4.69 0 2.38 0 0 Z " fill="#A1EE3D" transform="translate(96,133)"/>
<path d="M0 0 C6.75 -0.125 6.75 -0.125 9 1 C8.67 2.98 8.34 4.96 8 7 C7.01 7 6.02 7 5 7 C5 6.34 5 5.68 5 5 C3.35 5.33 1.7 5.66 0 6 C0 4.02 0 2.04 0 0 Z " fill="#86C236" transform="translate(170,135)"/>
<path d="M0 0 C3.96 0 7.92 0 12 0 C12 0.33 12 0.66 12 1 C9.36 1 6.72 1 4 1 C4 3.31 4 5.62 4 8 C1.10765685 8.82638376 -0.88742431 9 -4 9 C-4 8.34 -4 7.68 -4 7 C-4.66 7 -5.32 7 -6 7 C-5.67 6.01 -5.34 5.02 -5 4 C-4.34 4.33 -3.68 4.66 -3 5 C-3 5.66 -3 6.32 -3 7 C-2.01 7 -1.02 7 0 7 C0.66 5.02 1.32 3.04 2 1 C1.34 0.67 0.68 0.34 0 0 Z " fill="#3B4B23" transform="translate(145,132)"/>
<path d="M0 0 C2.31 0 4.62 0 7 0 C7.33 2.31 7.66 4.62 8 7 C5.36 7 2.72 7 0 7 C0 4.69 0 2.38 0 0 Z " fill="#93D73A" transform="translate(116,132)"/>
<path d="M0 0 C1.77049689 -0.05410687 3.54146849 -0.09284119 5.3125 -0.125 C6.29863281 -0.14820312 7.28476563 -0.17140625 8.30078125 -0.1953125 C11 0 11 0 14 2 C11.0384304 3.4807848 8.16493705 3.35314037 4.875 3.5625 C3.59367187 3.64628906 2.31234375 3.73007813 0.9921875 3.81640625 C0.00476563 3.87699219 -0.98265625 3.93757813 -2 4 C-1.34 2.68 -0.68 1.36 0 0 Z " fill="#201D1E" transform="translate(98,102)"/>
<path d="M0 0 C0.66 0.33 1.32 0.66 2 1 C1.67 7.27 1.34 13.54 1 20 C-1 17 -1 17 -1.5 13.4375 C-1.65847757 9.9428808 -1.65847757 9.9428808 -4 8 C-3.01 7.34 -2.02 6.68 -1 6 C-0.26656572 2.93443402 -0.26656572 2.93443402 0 0 Z " fill="#565354" transform="translate(167,109)"/>
<path d="M0 0 C0.89203125 0.00902344 1.7840625 0.01804687 2.703125 0.02734375 C3.37859375 0.03894531 4.0540625 0.05054687 4.75 0.0625 C4.75 1.0525 4.75 2.0425 4.75 3.0625 C0.13 3.0625 -4.49 3.0625 -9.25 3.0625 C-9.25 2.4025 -9.25 1.7425 -9.25 1.0625 C-6.09493858 0.12630187 -3.28413498 -0.0432123 0 0 Z " fill="#373334" transform="translate(85.25,103.9375)"/>
<path d="M0 0 C2.64 0 5.28 0 8 0 C7.67 1.32 7.34 2.64 7 4 C5.68 4 4.36 4 3 4 C3 4.66 3 5.32 3 6 C2.01 6 1.02 6 0 6 C0 4.02 0 2.04 0 0 Z " fill="#95DB3A" transform="translate(149,133)"/>
<path d="M0 0 C2.31 0 4.62 0 7 0 C7 0.66 7 1.32 7 2 C6.34 2 5.68 2 5 2 C5 3.65 5 5.3 5 7 C4.01 7 3.02 7 2 7 C2 5.35 2 3.7 2 2 C1.34 2 0.68 2 0 2 C0 1.34 0 0.68 0 0 Z " fill="#96DB3B" transform="translate(125,132)"/>
<path d="M0 0 C2.31 0 4.62 0 7 0 C6.01 0.495 6.01 0.495 5 1 C5 2.98 5 4.96 5 7 C4.01 7 3.02 7 2 7 C2 5.35 2 3.7 2 2 C1.34 2 0.68 2 0 2 C0 1.34 0 0.68 0 0 Z " fill="#96DC3A" transform="translate(87,134)"/>
<path d="M0 0 C2.33333333 0 4.66666667 0 7 0 C6.34 1.98 5.68 3.96 5 6 C4.01 6 3.02 6 2 6 C1.34 4.02 0.68 2.04 0 0 Z " fill="#97DD3B" transform="translate(140,133)"/>
<path d="M0 0 C2.31 0 4.62 0 7 0 C6.67 0.99 6.34 1.98 6 3 C5.01 3.33 4.02 3.66 3 4 C4.32 4.66 5.64 5.32 7 6 C4.69 6 2.38 6 0 6 C0 4.02 0 2.04 0 0 Z " fill="#A1EE3D" transform="translate(107,133)"/>
<path d="M0 0 C2.64 0 5.28 0 8 0 C8.33 1.65 8.66 3.3 9 5 C8.34 4.34 7.68 3.68 7 3 C4.39719432 3.32041397 4.39719432 3.32041397 2 4 C2 3.34 2 2.68 2 2 C1.34 1.34 0.68 0.68 0 0 Z " fill="#81B935" transform="translate(96,133)"/>
<path d="M0 0 C2.31 0 4.62 0 7 0 C6.34 0.66 5.68 1.32 5 2 C4.01 1.67 3.02 1.34 2 1 C2.33 1.99 2.66 2.98 3 4 C2.67 4.66 2.34 5.32 2 6 C1.34 6 0.68 6 0 6 C0 4.02 0 2.04 0 0 Z " fill="#A3F23E" transform="translate(170,135)"/>
<path d="M0 0 C2.64 0 5.28 0 8 0 C6.68 0.33 5.36 0.66 4 1 C4 2.98 4 4.96 4 7 C3.566875 6.0409375 3.566875 6.0409375 3.125 5.0625 C2.17176549 2.84793921 2.17176549 2.84793921 0 2 C0 1.34 0 0.68 0 0 Z " fill="#1A1B14" transform="translate(102,131)"/>
</svg>
